<?xml version="1.0" encoding="UTF-8" standalone="no"?><!DOCTYPE svg PUBLIC "-//W3C//DTD SVG 1.1//EN" "http://www.w3.org/Graphics/SVG/1.1/DTD/svg11.dtd"><svg width="100%" height="100%" viewBox="0 0 899 571" version="1.1" xmlns="http://www.w3.org/2000/svg" xmlns:xlink="http://www.w3.org/1999/xlink" xml:space="preserve" xmlns:serif="http://www.serif.com/" style="fill-rule:evenodd;clip-rule:evenodd;stroke-linejoin:round;stroke-miterlimit:2;"><g id="CSC-Logo" serif:id="CSC Logo"><path d="M0,225.408l449.164,-0l0,225.42c-4.687,0.253 -8.983,-1.515 -11.031,-5.325c-1.666,-74.857 -7.235,-127.959 -37.585,-159.938c-48.857,-51.479 -214.848,-42.686 -392.048,-48.823c-4.694,-1.704 -7.374,-5.89 -8.5,-11.334Z" style="fill:#006778;"/><path d="M898.316,225.444l-449.164,-0l0,-225.42c4.687,-0.254 8.983,1.515 11.031,5.325c1.666,74.856 7.235,127.958 37.586,159.937c48.857,51.479 214.848,42.687 392.048,48.824c4.693,1.703 7.373,5.89 8.499,11.334Z" style="fill:#830051;"/><path d="M368.545,514.137c1.686,-1.573 8.069,-11.188 9.021,-13.401c0.436,-1.015 -3.312,0.12 -3.312,0.12c-8.088,-5.658 -16.323,-8.268 -24.699,-7.972c-21.019,1.433 -32.878,13.941 -34.07,39.348c1.456,24.103 15.679,39.873 34.933,38.615c10.152,-0.144 18.163,-3.557 24.86,-9.579c0,0 3.931,0.794 3.478,-0.31c-0.907,-2.212 -7.178,-11.299 -8.958,-12.588c-1.392,-1.007 -1.313,4.603 -1.313,4.603c-3.465,5.076 -9.313,8.258 -18.026,7.615c-14.773,0.131 -22.205,-9.89 -22.981,-28.525c0.274,-20.548 9.451,-27.614 21.966,-29.129c7.566,-0.177 13.649,2.099 18.002,7.24c-0,0 0.096,4.898 1.099,3.963Z" style="fill:#5e6a71;"/><path d="M469.949,514.438c1.475,-2.006 7.038,-13.398 7.719,-15.911c0.325,-1.199 -3.632,1.285 -3.632,1.285c-10.587,-5.657 -14.102,-5.994 -23.434,-6.612c-19.14,-1.268 -28.638,7.255 -29.074,20.979c-0.471,14.839 11.572,20.882 27.412,22.088c11.117,0.846 17.634,5.133 17.328,12.811c-0.336,8.425 -5.974,12.44 -17.435,11.612c-11.94,-1.066 -19.145,-4.265 -21.301,-9.739c-0,0 0.137,-5.097 -0.696,-4.021c-1.45,1.871 -7.096,12.763 -8,15.25c-0.296,0.813 2.575,-0.33 2.575,-0.33c10.109,6.954 18.885,8.836 27.229,9.049c19.048,0.485 28.493,-8.618 29.589,-21.996c1.08,-13.186 -7.768,-21.22 -28.821,-23.992c-10.143,-1.336 -16.115,-3.927 -16.38,-10.749c-0.261,-6.723 4.766,-10.965 16.445,-11.13c7.942,-0.112 14.608,2.357 19.537,7.531c-0,-0 0.141,4.96 0.939,3.875Z" style="fill:#5e6a71;"/><path d="M572.491,514.137c1.686,-1.573 8.069,-11.188 9.021,-13.401c0.436,-1.015 -3.312,0.12 -3.312,0.12c-8.088,-5.658 -16.323,-8.268 -24.699,-7.972c-21.019,1.433 -32.878,13.941 -34.07,39.348c1.456,24.103 15.679,39.873 34.933,38.615c10.152,-0.144 18.163,-3.557 24.86,-9.579c0,0 3.931,0.794 3.478,-0.31c-0.907,-2.212 -7.178,-11.299 -8.958,-12.588c-1.391,-1.007 -1.313,4.603 -1.313,4.603c-3.465,5.076 -9.313,8.258 -18.026,7.615c-14.773,0.131 -22.205,-9.89 -22.98,-28.525c0.273,-20.548 9.45,-27.614 21.965,-29.129c7.566,-0.177 13.649,2.099 18.002,7.24c0,0 0.096,4.898 1.099,3.963Z" style="fill:#5e6a71;"/></g></svg>